<svg width="890" height="655" viewBox="0 0 890 655" fill="none" xmlns="http://www.w3.org/2000/svg">
<path d="M890 0.5H0V655H890V0.5Z" fill="white"/>
<path d="M218.5 510H575C588.807 510 600 498.807 600 485V404.5C600 390.693 611.193 379.5 625 379.5H807.5C821.307 379.5 832.5 368.307 832.5 354.5V215C832.5 201.193 821.307 190 807.5 190H533C519.193 190 508 178.807 508 165V164C508 150.193 496.807 139 483 139H472.5C460.626 139 451 129.374 451 117.5C451 105.626 441.374 96 429.5 96H137C123.193 96 112 107.193 112 121V269.5C112 283.307 123.193 294.5 137 294.5H168.5C182.307 294.5 193.5 305.693 193.5 319.5V485C193.5 498.807 204.693 510 218.5 510Z" fill="#BB2548" fill-opacity="0.08"/>
</svg>
