<svg width="890" height="612" viewBox="0 0 890 612" fill="none" xmlns="http://www.w3.org/2000/svg">
<path fill-rule="evenodd" clip-rule="evenodd" d="M0 0H890V654.5H0V0ZM575 509.5H218.5C204.693 509.5 193.5 498.307 193.5 484.5V319C193.5 305.193 182.307 294 168.5 294H137C123.193 294 112 282.807 112 269V120.5C112 106.693 123.193 95.5 137 95.5H429.5C441.374 95.5 451 105.126 451 117C451 128.874 460.626 138.5 472.5 138.5H483C496.807 138.5 508 149.693 508 163.5V164.5C508 178.307 519.193 189.5 533 189.5H807.5C821.307 189.5 832.5 200.693 832.5 214.5V354C832.5 367.807 821.307 379 807.5 379H625C611.193 379 600 390.193 600 404V484.5C600 498.307 588.807 509.5 575 509.5Z" fill="white"/>
</svg>
