<svg width="721" height="414" viewBox="0 0 721 414" fill="none" xmlns="http://www.w3.org/2000/svg">
<path d="M106.5 414H463C476.807 414 488 402.807 488 389V308.5C488 294.693 499.193 283.5 513 283.5H695.5C709.307 283.5 720.5 272.307 720.5 258.5V119C720.5 105.193 709.307 94 695.5 94H421C407.193 94 396 82.8071 396 69V68C396 54.1929 384.807 43 371 43H360.5C348.626 43 339 33.3741 339 21.5C339 9.62588 329.374 0 317.5 0H25C11.1929 0 0 11.1929 0 25V173.5C0 187.307 11.1929 198.5 25 198.5H56.5C70.3071 198.5 81.5 209.693 81.5 223.5V389C81.5 402.807 92.6929 414 106.5 414Z" fill="#BB2548"/>
</svg>
